<?xml version="1.0" encoding="UTF-8"?>
<svg xmlns="http://www.w3.org/2000/svg" width="180" height="32" fill="none">
  <rect width="180" height="32" rx="4" fill="#1A1A1A"/>
  <g fill="#fff">
    <!-- Bolt logo -->
    <path fill-rule="evenodd" d="M26.64 22.866c-1.035 0-2.051-.368-2.635-1.158l-.206.932L20 24.61l.41-1.97L23.177 10.39h3.388l-.979 4.318c.79-.846 1.525-1.158 2.466-1.158 2.032 0 3.388 1.305 3.388 3.693 0 2.462-1.563 5.623-4.8 5.623m1.3-4.926c0 1.14-.828 2.003-1.901 2.003-.602 0-1.148-.22-1.506-.606l.527-2.26c.395-.386.847-.607 1.374-.607.81 0 1.506.588 1.506 1.47" clip-rule="evenodd"/>
    <!-- Text -->
    <text x="45" y="20" font-family="Arial, sans-serif" font-size="14">Open in bolt.new | AI</text>
    <!-- Arrow -->
    <path fill-rule="evenodd" d="M155 21.887l5-5V16.18l-5-5-.707.707 4.146 4.147H148v1h10.44l-4.148 4.146.707.707z" clip-rule="evenodd"/>
  </g>
</svg>
